<svg xmlns="http://www.w3.org/2000/svg" viewBox="0 0 16 24"><defs><style>.cls-1{fill:#fff;}.cls-2{fill:#322a30;}.cls-3{fill:#ececec;}.cls-4{fill:#da2536;}</style></defs><title>Asset 1</title><g id="Layer_2" data-name="Layer 2"><g id="Layer_1-2" data-name="Layer 1"><rect class="cls-1" x="3" y="12" width="10" height="7"/><rect class="cls-1" x="2" y="2" width="12" height="7"/><rect class="cls-1" x="3" y="1" width="10" height="1"/><rect class="cls-1" x="2" y="12" width="1" height="2"/><rect class="cls-1" x="1" y="14" width="1" height="2"/><rect class="cls-1" x="1" y="16" width="1" height="2"/><rect class="cls-1" y="12" width="2" height="2"/><rect class="cls-1" y="13" width="1" height="3"/><rect class="cls-1" y="16" width="1" height="2"/><rect class="cls-1" x="3" y="19" width="2" height="4"/><rect class="cls-1" x="11" y="19" width="2" height="4"/><rect class="cls-2" y="18" width="2" height="1"/><rect class="cls-1" x="13" y="12" width="1" height="2" transform="translate(27 26) rotate(180)"/><rect class="cls-1" x="14" y="14" width="1" height="2" transform="translate(29 30) rotate(180)"/><rect class="cls-1" x="14" y="16" width="1" height="2" transform="translate(29 34) rotate(180)"/><rect class="cls-2" x="14" y="18" width="1" height="1" transform="translate(29 37) rotate(180)"/><rect class="cls-1" x="14" y="12" width="2" height="2" transform="translate(30 26) rotate(180)"/><rect class="cls-1" x="15" y="13" width="1" height="3" transform="translate(31 29) rotate(180)"/><rect class="cls-1" x="15" y="16" width="1" height="2" transform="translate(31 34) rotate(180)"/><rect class="cls-2" x="15" y="18" width="1" height="1" transform="translate(31 37) rotate(180)"/><rect class="cls-1" x="3" y="11" width="10" height="1"/><rect class="cls-1" x="3" y="10" width="1" height="1"/><rect class="cls-1" x="12" y="10" width="1" height="1"/><rect class="cls-1" x="5" width="6" height="1"/><rect class="cls-1" x="1" y="11" width="2" height="1"/><rect class="cls-1" x="13" y="11" width="2" height="1"/><rect class="cls-3" x="3" y="17" width="10" height="1"/><rect class="cls-4" x="3" y="20" width="2" height="1"/><rect class="cls-4" x="11" y="20" width="2" height="1"/><rect class="cls-3" x="2" y="10" width="2" height="1"/><rect class="cls-3" x="4" y="11" width="8" height="1"/><rect class="cls-3" x="12" y="10" width="2" height="1"/><rect class="cls-4" y="15" width="2" height="1"/><rect class="cls-4" x="14" y="15" width="2" height="1"/><rect class="cls-2" x="4" y="3" width="8" height="5"/><rect class="cls-1" x="3" y="9" width="9" height="1"/><rect class="cls-1" x="4" y="10" width="8" height="1"/><rect class="cls-1" x="12" y="9" width="1" height="1"/><rect class="cls-2" x="3" y="4" width="1" height="3"/><rect class="cls-2" x="12" y="4" width="1" height="3"/><rect class="cls-2" x="2" y="23" width="3" height="1"/><rect class="cls-2" x="11" y="23" width="3" height="1"/><rect class="cls-2" x="3" y="22" width="2" height="1"/><rect class="cls-2" x="11" y="22" width="2" height="1"/><rect class="cls-3" x="9" y="13" width="3" height="2"/></g></g></svg>