<svg xmlns="http://www.w3.org/2000/svg" viewBox="0 0 21 24"><defs><style>.cls-1{fill:#fff200;}.cls-2{fill:#4a4a4a;}.cls-3{fill:#ffd7a9;}.cls-4{fill:#2b2600;}.cls-5{fill:#fff97d;}.cls-6{fill:#ffe600;}.cls-7{fill:#946f00;}.cls-8{fill:#fff;}.cls-9{fill:#ffbe75;}</style></defs><title>Asset 3</title><g id="Layer_2" data-name="Layer 2"><g id="Layer_1-2" data-name="Layer 1"><rect class="cls-1" x="4" y="16" width="11" height="4"/><rect class="cls-1" x="3" y="18" width="9" height="3"/><rect class="cls-1" x="6" y="12" width="11" height="4"/><rect class="cls-1" x="5" y="13" width="11" height="5"/><rect class="cls-1" x="1" width="5" height="2"/><rect class="cls-1" x="3" y="1" width="6" height="3"/><rect class="cls-1" x="4" y="2" width="8" height="4"/><rect class="cls-1" x="6" y="4" width="9" height="5"/><rect class="cls-1" x="6" y="7" width="11" height="6"/><rect class="cls-1" x="5" y="5" width="11" height="4"/><rect class="cls-1" x="2" y="20" width="6" height="2"/><rect class="cls-2" x="7" y="22" width="1" height="2"/><rect class="cls-2" x="6" y="23" width="2" height="1"/><rect class="cls-2" x="14" y="18" width="1" height="6"/><rect class="cls-2" x="14" y="23" width="2" height="1"/><rect class="cls-2" x="3" y="13" width="3" height="1"/><rect class="cls-2" x="2" y="12" width="1" height="1"/><rect class="cls-2" x="1" y="11" width="1" height="1"/><rect class="cls-3" x="1" y="10" width="1" height="1"/><rect class="cls-2" x="19" y="12" width="1" height="1" transform="translate(39 25) rotate(180)"/><rect class="cls-2" x="20" y="11" width="1" height="1" transform="translate(41 23) rotate(180)"/><rect class="cls-3" x="20" y="10" width="1" height="1" transform="translate(41 21) rotate(180)"/><rect class="cls-4" x="2" y="20" width="1" height="2"/><rect class="cls-4" width="1" height="2"/><rect class="cls-5" x="2" y="2" width="2" height="1"/><rect class="cls-5" x="1" y="1" width="2" height="1"/><rect class="cls-5" x="3" y="3" width="2" height="1"/><rect class="cls-5" x="4" y="4" width="2" height="2"/><rect class="cls-5" x="5" y="6" width="2" height="3"/><rect class="cls-5" x="6" y="9" width="2" height="5"/><rect class="cls-5" x="5" y="14" width="2" height="2"/><rect class="cls-5" x="4" y="16" width="2" height="2"/><rect class="cls-5" x="3" y="18" width="2" height="2"/><rect class="cls-5" x="3" y="20" width="1" height="1"/><rect class="cls-6" x="3" y="21" width="6" height="1"/><rect class="cls-6" x="6" y="20" width="6" height="1"/><rect class="cls-6" x="8" y="19" width="7" height="1"/><rect class="cls-6" x="12" y="17" width="3" height="2"/><rect class="cls-6" x="15" y="13" width="1" height="5"/><rect class="cls-6" x="16" y="7" width="1" height="9"/><rect class="cls-6" x="15" y="5" width="1" height="8"/><rect class="cls-6" x="12" y="4" width="3" height="1"/><rect class="cls-6" x="11" y="3" width="3" height="1"/><rect class="cls-6" x="8" y="2" width="5" height="1"/><rect class="cls-6" x="5" y="1" width="6" height="1"/><rect class="cls-6" x="1" width="7" height="1"/><rect class="cls-6" x="14" y="5" width="1" height="1"/><rect class="cls-6" x="11" y="18" width="3" height="1"/><rect class="cls-7" x="16" y="13" width="1" height="2"/><rect class="cls-6" x="14" y="15" width="1" height="2"/><rect class="cls-2" x="16" y="13" width="3" height="1" transform="translate(35 27) rotate(180)"/><rect class="cls-7" x="5" y="14" width="1" height="1"/><rect class="cls-3" x="7" y="6" width="8" height="5"/><rect class="cls-3" x="8" y="5" width="6" height="7"/><rect class="cls-8" x="7" y="6" width="2" height="3"/><rect x="8" y="6" width="1" height="2"/><rect class="cls-8" x="13" y="6" width="2" height="3"/><rect x="13" y="6" width="1" height="2"/><rect class="cls-9" x="9" y="9" width="1" height="1"/><rect class="cls-9" x="10" y="10" width="2" height="1"/><rect class="cls-9" x="12" y="9" width="1" height="1"/></g></g></svg>