<svg xmlns="http://www.w3.org/2000/svg" viewBox="0 0 23 24"><defs><style>.cls-1{fill:#368a20;}.cls-2{fill:#131613;}.cls-3{fill:#3c7b0d;}.cls-4{fill:#fff;}.cls-5{fill:#ff5538;}.cls-6{fill:#ff6e55;}.cls-7{fill:#27810f;}</style></defs><title>Asset 5</title><g id="Layer_2" data-name="Layer 2"><g id="Layer_1-2" data-name="Layer 1"><rect class="cls-1" y="6" width="14" height="3"/><rect class="cls-1" x="1" y="5" width="3" height="1"/><rect class="cls-1" x="8" y="4" width="8" height="5"/><rect class="cls-2" x="7" y="3" width="10" height="1"/><rect class="cls-3" y="6" width="1" height="2"/><rect class="cls-3" x="4" y="6" width="1" height="2"/><rect class="cls-4" x="8" y="5" width="2" height="1"/><rect class="cls-4" x="13" y="5" width="2" height="1"/><rect x="9" y="5" width="1" height="1"/><rect x="14" y="5" width="1" height="1"/><rect class="cls-1" x="8" y="9" width="8" height="11"/><rect class="cls-2" x="8" y="11" width="8" height="8"/><rect class="cls-2" x="8" y="10" width="1" height="1"/><rect class="cls-2" x="15" y="10" width="1" height="1"/><rect class="cls-4" x="9" y="10" width="1" height="1"/><rect class="cls-4" x="14" y="10" width="1" height="1"/><rect class="cls-4" x="10" y="10" width="4" height="2"/><rect class="cls-4" x="11" y="12" width="2" height="1"/><rect class="cls-5" x="11" y="10" width="2" height="1"/><rect class="cls-6" x="11" y="11" width="1" height="2"/><rect class="cls-1" x="8" y="20" width="2" height="4"/><rect class="cls-1" x="7" y="23" width="1" height="1"/><rect class="cls-1" x="14" y="20" width="2" height="4"/><rect class="cls-1" x="13" y="23" width="1" height="1"/><rect class="cls-2" x="7" y="11" width="1" height="6"/><rect class="cls-2" x="16" y="11" width="1" height="6"/><rect class="cls-1" x="7" y="17" width="1" height="1"/><rect class="cls-1" x="16" y="17" width="1" height="1"/><rect class="cls-7" x="20" y="22" width="2" height="2"/><rect class="cls-7" x="22" y="23" width="1" height="1"/><rect class="cls-7" x="20" y="21" width="1" height="1"/><rect class="cls-2" x="8" width="8" height="3"/><rect class="cls-7" x="13" y="20" width="1" height="1"/><rect class="cls-7" x="16" y="19" width="1" height="3"/><rect class="cls-7" x="17" y="20" width="2" height="3"/><rect class="cls-7" x="19" y="21" width="1" height="2"/><rect class="cls-1" x="2" y="9" width="6" height="1"/></g></g></svg>