<svg xmlns="http://www.w3.org/2000/svg" viewBox="0 0 18 24"><defs><style>.cls-1{fill:#ffd7a9;}.cls-2{fill:#fff;}.cls-3{fill:#ffbe7e;}.cls-4{fill:#f1eeef;}.cls-5{fill:#f8f8f6;}.cls-6{fill:#4c4f4c;}.cls-7{fill:#131613;}.cls-8{fill:#353535;}.cls-9{fill:#170b0f;}.cls-10{fill:#d4e7d2;}.cls-11{fill:#66f745;}.cls-12{fill:#bcffad;}</style></defs><title>Asset 2</title><g id="Layer_2" data-name="Layer 2"><g id="Layer_1-2" data-name="Layer 1"><rect class="cls-1" x="2" y="7" width="14" height="2"/><rect class="cls-1" x="3" y="1" width="12" height="11"/><rect class="cls-2" x="4" y="13" width="10" height="8"/><rect class="cls-3" x="7" y="9" width="3" height="1"/><rect class="cls-4" x="2" y="2" width="1" height="5"/><rect class="cls-4" x="15" y="2" width="1" height="5"/><rect class="cls-4" y="1" width="6" height="1"/><rect class="cls-4" x="11" y="1" width="7" height="1"/><rect class="cls-4" x="13" y="2" width="2" height="1"/><rect class="cls-4" x="14" y="3" width="1" height="1"/><rect class="cls-4" x="3" y="2" width="1" height="1"/><rect class="cls-5" x="3" y="13" width="1" height="5"/><rect class="cls-5" x="14" y="13" width="1" height="6"/><rect class="cls-1" x="14" y="19" width="1" height="1"/><rect class="cls-6" x="4" y="21" width="1" height="2"/><rect class="cls-6" x="13" y="21" width="1" height="2"/><rect class="cls-7" x="3" y="23" width="2" height="1"/><rect class="cls-7" x="13" y="23" width="2" height="1"/><rect class="cls-1" x="6" y="12" width="6" height="1"/><rect class="cls-2" x="4" y="12" width="2" height="1"/><rect class="cls-2" x="12" y="12" width="2" height="1"/><rect class="cls-4" x="16" y="2" width="1" height="3"/><rect class="cls-4" y="2" width="1" height="1"/><rect class="cls-4" x="1" y="2" width="1" height="3"/><rect class="cls-4" x="17" y="2" width="1" height="1"/><rect class="cls-2" x="4" y="6" width="3" height="2"/><rect class="cls-2" x="11" y="6" width="3" height="2"/><rect class="cls-4" x="1" width="4" height="1"/><rect class="cls-4" x="13" width="4" height="1"/><rect class="cls-8" x="3" y="6" width="1" height="2"/><rect class="cls-8" x="4" y="5" width="3" height="1"/><rect class="cls-8" x="4" y="8" width="3" height="1"/><rect class="cls-8" x="7" y="6" width="1" height="2"/><rect class="cls-8" x="10" y="6" width="1" height="2"/><rect class="cls-8" x="11" y="5" width="3" height="1"/><rect class="cls-8" x="11" y="8" width="3" height="1"/><rect class="cls-8" x="14" y="6" width="1" height="2"/><rect class="cls-9" x="8" y="6" width="2" height="1"/><rect x="5" y="6" width="1" height="1"/><rect x="12" y="6" width="1" height="1"/><rect class="cls-9" x="2" y="6" width="1" height="1"/><rect class="cls-9" x="15" y="6" width="1" height="1"/><rect class="cls-8" x="8" y="14" width="1" height="1"/><rect class="cls-8" x="8" y="16" width="1" height="1"/><rect class="cls-8" x="8" y="18" width="1" height="1"/><rect class="cls-10" x="7" y="16" width="1" height="3"/><rect class="cls-11" x="6" y="19" width="3" height="1"/><rect class="cls-11" x="5" y="20" width="5" height="2"/><rect class="cls-10" x="6" y="15" width="3" height="1"/><rect class="cls-11" x="7" y="18" width="1" height="1"/><rect class="cls-1" x="7" y="17" width="1" height="1"/><rect class="cls-5" x="4" y="17" width="3" height="1"/><rect class="cls-12" x="6" y="20" width="1" height="1"/><rect class="cls-12" x="8" y="21" width="1" height="1"/><rect class="cls-12" x="8" y="19" width="1" height="1"/></g></g></svg>