<svg xmlns="http://www.w3.org/2000/svg" viewBox="0 0 17 24"><defs><style>.cls-1{fill:#ffd7a9;}.cls-2{fill:#4f4f4f;}.cls-3{fill:#ffbe7e;}.cls-4{fill:#b5b1b6;}.cls-5{fill:#ae7b2e;}.cls-6{fill:#fff;}.cls-7{fill:#7b5631;}.cls-8{fill:#a29fa3;}.cls-9{fill:#454545;}</style></defs><title>Asset 4</title><g id="Layer_2" data-name="Layer 2"><g id="Layer_1-2" data-name="Layer 1"><rect class="cls-1" x="2" y="7" width="14" height="2"/><rect class="cls-1" x="3" y="1" width="12" height="11"/><rect class="cls-2" x="4" y="13" width="10" height="11"/><rect class="cls-3" x="8" y="8" width="3" height="1"/><rect class="cls-4" x="2" y="2" width="1" height="5"/><rect class="cls-4" x="15" y="2" width="1" height="5"/><rect class="cls-4" x="3" y="1" width="12" height="1"/><rect class="cls-4" x="5" width="8" height="1"/><rect class="cls-4" x="12" y="2" width="3" height="1"/><rect class="cls-4" x="14" y="3" width="1" height="1"/><rect class="cls-4" x="3" y="2" width="1" height="11"/><rect class="cls-4" x="2" y="9" width="1" height="5"/><rect class="cls-4" x="15" y="9" width="1" height="5"/><rect class="cls-5" x="3" y="13" width="1" height="1"/><rect class="cls-5" x="14" y="13" width="1" height="1"/><rect class="cls-2" x="2.5" y="15.5" width="1" height="2" transform="translate(19.5 13.5) rotate(90)"/><rect class="cls-1" x="14" y="14" width="1" height="6"/><rect class="cls-2" x="14" y="15" width="1" height="4"/><rect class="cls-1" x="6" y="12" width="6" height="1"/><rect class="cls-6" x="4" y="5" width="2" height="3" transform="translate(10 13) rotate(180)"/><rect x="5" y="5" width="1" height="2" transform="translate(11 12) rotate(180)"/><rect class="cls-6" x="12" y="5" width="2" height="3" transform="translate(26 13) rotate(180)"/><rect x="12" y="5" width="1" height="2" transform="translate(25 12) rotate(180)"/><rect class="cls-2" x="3" y="14" width="1" height="2"/><rect class="cls-7" y="16" width="1" height="3"/><rect class="cls-7" x="1" y="16" width="1" height="1"/><rect class="cls-1" y="16" width="1" height="1"/><rect class="cls-7" x="1" y="19" width="1" height="2"/><rect class="cls-7" y="21" width="1" height="3"/><rect class="cls-4" x="3" y="12" width="1" height="3"/><rect class="cls-4" x="4" y="2" width="6" height="1"/><rect class="cls-4" x="4" y="3" width="4" height="1"/><rect class="cls-4" x="4" y="4" width="2" height="1"/><rect class="cls-4" x="4" y="4" width="1" height="2"/><rect class="cls-4" x="1" y="5" width="1" height="7"/><rect class="cls-4" x="16" y="4" width="1" height="8"/><rect class="cls-8" x="4" y="10" width="11" height="2"/><rect class="cls-8" x="5" y="12" width="9" height="1"/><rect class="cls-8" x="6" y="13" width="6" height="1"/><rect class="cls-8" x="7" y="14" width="4" height="1"/><rect class="cls-8" x="6" y="8" width="1" height="2"/><rect class="cls-8" x="7" y="7" width="4" height="1"/><rect class="cls-8" x="11" y="8" width="1" height="2"/><rect class="cls-4" x="14" y="12" width="1" height="3"/><rect class="cls-4" x="4" y="12" width="1" height="2"/><rect class="cls-8" x="4" y="9" width="1" height="1"/><rect class="cls-8" x="13" y="9" width="2" height="1"/><rect class="cls-8" x="14" y="8" width="1" height="1"/><rect class="cls-9" x="5" y="13" width="1" height="1"/><rect class="cls-9" x="6" y="14" width="1" height="1"/><rect class="cls-9" x="7" y="15" width="4" height="1"/><rect class="cls-9" x="11" y="14" width="1" height="1"/><rect class="cls-9" x="12" y="13" width="2" height="1"/><rect class="cls-9" x="4" y="14" width="1" height="1"/></g></g></svg>