<svg xmlns="http://www.w3.org/2000/svg" viewBox="0 0 4.11 5.94"><defs><style>.cls-1{fill:#bf7362;}.cls-2{fill:#d9826f;}.cls-3{fill:#e6e7e8;}.cls-4{fill:#b36b5c;}.cls-5{fill:#995b4f;}.cls-6{fill:#d1d3d4;}</style></defs><title>Asset 12</title><g id="Layer_2" data-name="Layer 2"><g id="Layer_1-2" data-name="Layer 1"><polygon class="cls-1" points="3.2 1.37 2.74 1.37 2.74 1.83 3.2 1.83 3.65 1.83 3.65 1.37 3.2 1.37"/><polygon class="cls-2" points="3.2 1.83 2.74 1.83 2.74 2.29 2.74 2.74 2.29 2.74 2.29 3.2 2.29 3.65 2.29 4.11 1.83 4.11 1.83 4.57 1.83 5.03 2.29 5.03 2.74 5.03 2.74 4.57 2.74 4.11 3.2 4.11 3.2 3.65 3.2 3.2 3.65 3.2 3.65 2.74 3.65 2.29 3.65 1.83 3.2 1.83"/><polygon class="cls-3" points="2.74 0 2.29 0 1.83 0 1.37 0 0.91 0 0.91 0.46 1.37 0.46 1.37 0.91 1.83 0.91 2.29 0.91 2.74 0.91 3.2 0.91 3.65 0.91 3.65 0.46 3.65 0 3.2 0 2.74 0"/><polygon class="cls-4" points="3.65 1.83 3.65 2.29 3.65 2.74 3.65 3.2 3.2 3.2 3.2 3.65 3.2 4.11 2.74 4.11 2.74 4.57 2.74 5.03 2.29 5.03 1.83 5.03 1.83 4.57 1.83 4.11 2.29 4.11 2.29 3.65 2.29 3.2 2.29 2.74 2.74 2.74 2.74 2.29 2.74 1.83 2.29 1.83 1.83 1.83 1.37 1.83 0.91 1.83 0.46 1.83 0.46 2.29 0.46 2.74 0.46 3.2 0.91 3.2 0.91 3.65 0.91 4.11 0.91 4.57 0.91 5.03 1.37 5.03 1.37 5.48 1.83 5.48 1.83 5.94 2.29 5.94 2.74 5.94 2.74 5.48 3.2 5.48 3.65 5.48 3.65 5.03 3.65 4.57 3.65 4.11 3.65 3.65 4.11 3.65 4.11 3.2 4.11 2.74 4.11 2.29 4.11 1.83 3.65 1.83"/><rect class="cls-5" x="3.66" y="1.37" width="0.46" height="0.46"/><rect class="cls-5" x="2.74" y="5.48" width="0.46" height="0.46"/><polygon class="cls-5" points="2.74 1.37 2.29 1.37 1.83 1.37 1.37 1.37 0.91 1.37 0.46 1.37 0 1.37 0 1.83 0 2.29 0 2.74 0 3.2 0 3.65 0.46 3.65 0.46 4.11 0.46 4.57 0.46 5.03 0.46 5.48 0.91 5.48 0.91 5.94 1.37 5.94 1.83 5.94 1.83 5.48 1.37 5.48 1.37 5.03 0.91 5.03 0.91 4.57 0.91 4.11 0.91 3.65 0.91 3.2 0.46 3.2 0.46 2.74 0.46 2.29 0.46 1.83 0.91 1.83 1.37 1.83 1.83 1.83 2.29 1.83 2.74 1.83 2.74 1.37"/><polygon class="cls-6" points="3.65 0.91 3.2 0.91 2.74 0.91 2.29 0.91 1.83 0.91 1.37 0.91 1.37 0.46 0.91 0.46 0.91 0 0.46 0 0.46 0.46 0 0.46 0 0.91 0 1.37 0.46 1.37 0.91 1.37 1.37 1.37 1.83 1.37 2.29 1.37 2.74 1.37 3.2 1.37 3.65 1.37 4.11 1.37 4.11 0.91 4.11 0.46 3.65 0.46 3.65 0.91"/></g></g></svg>