<svg xmlns="http://www.w3.org/2000/svg" viewBox="0 0 5.48 7.31"><defs><style>.cls-1{fill:#ff3f33;}.cls-2{fill:#cc241a;}.cls-3{fill:#ef2b1f;}.cls-4{fill:#f6bb00;}.cls-5{fill:#e39d01;}</style></defs><title>Asset 11</title><g id="Layer_2" data-name="Layer 2"><g id="Layer_1-2" data-name="Layer 1"><polygon class="cls-1" points="5.03 2.74 4.57 2.74 4.57 3.2 4.11 3.2 4.11 3.65 3.65 3.65 3.2 3.65 2.74 3.65 2.29 3.65 1.83 3.65 1.37 3.65 1.37 3.2 0.91 3.2 0.91 2.74 0.46 2.74 0.46 3.2 0.46 3.65 0.46 4.11 0.91 4.11 0.91 4.57 0.91 5.03 1.37 5.03 1.37 5.48 1.83 5.48 1.83 5.94 2.29 5.94 2.74 5.94 3.2 5.94 3.65 5.94 4.11 5.94 4.11 5.48 4.57 5.48 4.57 5.03 5.03 5.03 5.03 4.57 5.03 4.11 5.48 4.11 5.48 3.65 5.48 3.2 5.48 2.74 5.03 2.74"/><rect class="cls-2" x="5.03" y="5.48" width="0.46" height="0.46"/><polygon class="cls-2" points="4.57 6.4 4.57 6.86 5.03 6.86 5.03 6.4 5.03 5.94 4.57 5.94 4.57 6.4"/><polygon class="cls-2" points="3.65 6.86 3.2 6.86 2.74 6.86 2.29 6.86 1.83 6.86 1.37 6.86 1.37 6.4 0.91 6.4 0.91 5.94 0.46 5.94 0.46 6.4 0.46 6.86 0.91 6.86 0.91 7.31 1.37 7.31 1.83 7.31 2.29 7.31 2.74 7.31 3.2 7.31 3.65 7.31 4.11 7.31 4.57 7.31 4.57 6.86 4.11 6.86 3.65 6.86"/><polygon class="cls-2" points="0.46 5.03 0.46 4.57 0 4.57 0 5.03 0 5.48 0 5.94 0.46 5.94 0.46 5.48 0.46 5.03"/><polygon class="cls-3" points="5.03 4.11 5.03 4.57 5.03 5.03 4.57 5.03 4.57 5.48 4.11 5.48 4.11 5.94 3.65 5.94 3.2 5.94 2.74 5.94 2.29 5.94 1.83 5.94 1.83 5.48 1.37 5.48 1.37 5.03 0.91 5.03 0.91 4.57 0.91 4.11 0.46 4.11 0.46 3.65 0.46 3.2 0.46 2.74 0 2.74 0 3.2 0 3.65 0 4.11 0 4.57 0.46 4.57 0.46 5.03 0.46 5.48 0.46 5.94 0.91 5.94 0.91 6.4 1.37 6.4 1.37 6.86 1.83 6.86 2.29 6.86 2.74 6.86 3.2 6.86 3.65 6.86 4.11 6.86 4.57 6.86 4.57 6.4 4.57 5.94 5.03 5.94 5.03 5.48 5.48 5.48 5.48 5.03 5.48 4.57 5.48 4.11 5.03 4.11"/><polygon class="cls-4" points="5.03 0.46 5.03 0.91 5.03 1.37 4.57 1.37 4.57 0.91 4.11 0.91 4.11 0.46 4.11 0 3.65 0 3.65 0.46 3.65 0.91 3.2 0.91 3.2 1.37 3.65 1.37 3.65 1.83 4.11 1.83 4.11 2.29 4.57 2.29 4.57 1.83 5.03 1.83 5.03 2.29 5.48 2.29 5.48 1.83 5.48 1.37 5.48 0.91 5.48 0.46 5.03 0.46"/><rect class="cls-4" x="4.11" y="2.74" width="0.46" height="0.46"/><rect class="cls-4" x="3.66" y="3.2" width="0.46" height="0.46"/><rect class="cls-4" x="2.74" y="3.2" width="0.46" height="0.46"/><polygon class="cls-4" points="2.74 0.91 2.74 0.46 2.29 0.46 2.29 0.91 2.29 1.37 2.29 1.83 2.74 1.83 2.74 2.29 2.74 2.74 3.2 2.74 3.2 3.2 3.65 3.2 3.65 2.74 3.65 2.29 3.2 2.29 3.2 1.83 3.2 1.37 2.74 1.37 2.74 0.91"/><rect class="cls-4" x="1.83" y="3.2" width="0.46" height="0.46"/><rect class="cls-4" x="1.37" y="2.74" width="0.46" height="0.46"/><polygon class="cls-4" points="1.83 1.37 1.83 0.91 1.37 0.91 1.37 0.46 0.91 0.46 0.91 0.91 0.46 0.91 0.46 1.37 0 1.37 0 1.83 0 2.29 0.46 2.29 0.91 2.29 0.91 1.83 1.37 1.83 1.37 2.29 1.83 2.29 1.83 2.74 2.29 2.74 2.29 2.29 2.29 1.83 1.83 1.83 1.83 1.37"/><rect class="cls-4" x="0.91" y="2.28" width="0.46" height="0.46"/><polygon class="cls-5" points="5.03 2.29 5.03 1.83 4.57 1.83 4.57 2.29 4.11 2.29 4.11 1.83 3.65 1.83 3.65 1.37 3.2 1.37 3.2 1.83 3.2 2.29 3.65 2.29 3.65 2.74 3.65 3.2 4.11 3.2 4.11 2.74 4.57 2.74 5.03 2.74 5.48 2.74 5.48 2.29 5.03 2.29"/><rect class="cls-5" x="3.2" y="3.2" width="0.46" height="0.46"/><rect class="cls-5" x="3.2" y="0.46" width="0.46" height="0.46"/><polygon class="cls-5" points="2.74 2.74 2.74 2.29 2.74 1.83 2.29 1.83 2.29 2.29 2.29 2.74 1.83 2.74 1.83 3.2 2.29 3.2 2.29 3.65 2.74 3.65 2.74 3.2 3.2 3.2 3.2 2.74 2.74 2.74"/><rect class="cls-5" x="1.37" y="3.2" width="0.46" height="0.46"/><rect class="cls-5" x="1.37" y="2.28" width="0.46" height="0.46"/><rect class="cls-5" x="0.91" y="2.74" width="0.46" height="0.46"/><rect class="cls-5" x="0.91" y="1.83" width="0.46" height="0.46"/><polygon class="cls-5" points="0.46 2.29 0 2.29 0 2.74 0.46 2.74 0.91 2.74 0.91 2.29 0.46 2.29"/><polygon class="cls-5" points="0.46 0.91 0.46 0.46 0 0.46 0 0.91 0 1.37 0.46 1.37 0.46 0.91"/></g></g></svg>