<svg xmlns="http://www.w3.org/2000/svg" viewBox="0 0 5.48 8.68"><defs><style>.cls-1{fill:#be1e2d;}.cls-2{fill:#f1f2f2;}.cls-3{fill:#bcbec0;}.cls-4{fill:#e6e7e8;}.cls-5{fill:#d1d3d4;}</style></defs><title>Asset 13</title><g id="Layer_2" data-name="Layer 2"><g id="Layer_1-2" data-name="Layer 1"><polygon class="cls-1" points="4.11 0 3.65 0 3.2 0 3.2 0.46 3.65 0.46 4.11 0.46 4.57 0.46 4.57 0 4.11 0"/><polygon class="cls-1" points="2.74 0.91 2.74 1.37 2.74 1.83 3.2 1.83 3.2 1.37 3.2 0.91 3.2 0.46 2.74 0.46 2.74 0.91"/><polygon class="cls-2" points="4.57 1.83 4.11 1.83 3.65 1.83 3.2 1.83 2.74 1.83 2.29 1.83 2.29 2.29 2.74 2.29 3.2 2.29 3.2 2.74 3.65 2.74 4.11 2.74 4.11 3.2 3.65 3.2 3.65 3.65 3.65 4.11 3.65 4.57 3.65 5.03 3.65 5.48 3.65 5.94 3.65 6.4 3.2 6.4 3.2 6.86 3.2 7.31 3.2 7.77 3.65 7.77 3.65 7.31 3.65 6.86 4.11 6.86 4.11 6.4 4.11 5.94 4.11 5.48 4.11 5.03 4.11 4.57 4.11 4.11 4.57 4.11 4.57 3.65 4.57 3.2 4.57 2.74 5.03 2.74 5.03 2.29 5.03 1.83 4.57 1.83"/><polygon class="cls-3" points="3.65 2.74 3.2 2.74 2.74 2.74 2.29 2.74 1.83 2.74 1.37 2.74 0.91 2.74 0.91 2.29 0.46 2.29 0 2.29 0 2.74 0.46 2.74 0.46 3.2 0.91 3.2 1.37 3.2 1.83 3.2 2.29 3.2 2.74 3.2 3.2 3.2 3.65 3.2 4.11 3.2 4.11 2.74 3.65 2.74"/><polygon class="cls-3" points="1.83 7.77 1.83 7.31 1.83 6.86 1.83 6.4 1.83 5.94 1.37 5.94 1.37 5.48 1.37 5.03 0.91 5.03 0.91 4.57 0.91 4.11 0.46 4.11 0.46 4.57 0.46 5.03 0.46 5.48 0.46 5.94 0.91 5.94 0.91 6.4 0.91 6.86 0.91 7.31 0.91 7.77 0.91 8.23 1.37 8.23 1.37 8.68 1.83 8.68 2.29 8.68 2.29 8.23 1.83 8.23 1.83 7.77"/><rect class="cls-4" x="5.03" y="2.28" width="0.46" height="0.46"/><polygon class="cls-4" points="4.57 3.2 4.57 3.65 4.57 4.11 4.11 4.11 4.11 4.57 4.11 5.03 4.11 5.48 4.11 5.94 4.11 6.4 4.11 6.86 3.65 6.86 3.65 7.31 3.65 7.77 3.2 7.77 3.2 7.31 3.2 6.86 3.2 6.4 3.65 6.4 3.65 5.94 3.65 5.48 3.65 5.03 3.65 4.57 3.65 4.11 3.65 3.65 3.65 3.2 3.2 3.2 2.74 3.2 2.29 3.2 1.83 3.2 1.37 3.2 1.37 3.65 1.83 3.65 1.83 4.11 1.83 4.57 1.83 5.03 1.83 5.48 2.29 5.48 2.29 5.94 2.29 6.4 2.29 6.86 2.29 7.31 2.29 7.77 2.74 7.77 2.74 8.23 2.74 8.68 3.2 8.68 3.65 8.68 3.65 8.23 4.11 8.23 4.57 8.23 4.57 7.77 4.57 7.31 4.57 6.86 4.57 6.4 4.57 5.94 4.57 5.48 5.03 5.48 5.03 5.03 5.03 4.57 5.03 4.11 5.03 3.65 5.03 3.2 5.03 2.74 4.57 2.74 4.57 3.2"/><polygon class="cls-4" points="1.83 2.29 1.83 2.74 2.29 2.74 2.74 2.74 3.2 2.74 3.2 2.29 2.74 2.29 2.29 2.29 2.29 1.83 1.83 1.83 1.37 1.83 0.91 1.83 0.91 2.29 1.37 2.29 1.83 2.29"/><rect class="cls-5" x="3.66" y="8.23" width="0.46" height="0.46"/><polygon class="cls-5" points="2.29 7.31 2.29 6.86 2.29 6.4 2.29 5.94 2.29 5.48 1.83 5.48 1.83 5.03 1.83 4.57 1.83 4.11 1.83 3.65 1.37 3.65 1.37 3.2 0.91 3.2 0.46 3.2 0.46 3.65 0.46 4.11 0.91 4.11 0.91 4.57 0.91 5.03 1.37 5.03 1.37 5.48 1.37 5.94 1.83 5.94 1.83 6.4 1.83 6.86 1.83 7.31 1.83 7.77 1.83 8.23 2.29 8.23 2.29 8.68 2.74 8.68 2.74 8.23 2.74 7.77 2.29 7.77 2.29 7.31"/><polygon class="cls-5" points="1.37 2.74 1.83 2.74 1.83 2.29 1.37 2.29 0.91 2.29 0.91 2.74 1.37 2.74"/><rect class="cls-5" x="0.46" y="1.83" width="0.46" height="0.46"/></g></g></svg>