<svg xmlns="http://www.w3.org/2000/svg" viewBox="0 0 6.4 4.57"><defs><style>.cls-1{fill:#b35701;}.cls-2{fill:#8c2700;}.cls-3{fill:#fb4b24;}.cls-4{fill:#d56801;}.cls-5{fill:#e04320;}.cls-6{fill:#ffd43a;}.cls-7{fill:#994a01;}.cls-8{fill:#608f00;}.cls-9{fill:#6b1e00;}.cls-10{fill:#d9b431;}.cls-11{fill:#77b100;}</style></defs><title>Asset 7</title><g id="Layer_2" data-name="Layer 2"><g id="Layer_1-2" data-name="Layer 1"><polygon class="cls-1" points="5.48 3.66 5.03 3.66 4.57 3.66 4.11 3.66 4.11 4.11 4.57 4.11 4.57 4.57 5.03 4.57 5.48 4.57 5.48 4.11 5.94 4.11 5.94 3.66 5.48 3.66"/><rect class="cls-1" x="2.74" y="3.66" width="0.46" height="0.46"/><rect class="cls-2" x="5.48" y="2.28" width="0.46" height="0.46"/><polygon class="cls-2" points="3.66 2.74 3.66 3.2 4.11 3.2 4.11 2.74 4.11 2.29 3.66 2.29 3.66 2.74"/><rect class="cls-2" x="1.83" y="2.28" width="0.46" height="0.46"/><polygon class="cls-3" points="5.03 2.29 4.57 2.29 4.11 2.29 4.11 2.74 4.57 2.74 5.03 2.74 5.48 2.74 5.48 2.29 5.03 2.29"/><rect class="cls-3" x="2.74" y="2.28" width="0.46" height="0.46"/><rect class="cls-3" x="0.91" y="2.28" width="0.46" height="0.46"/><rect class="cls-4" x="5.94" y="1.37" width="0.46" height="0.46"/><path class="cls-4" d="M5.48.91V.46H4.57V0H2.74V.46H2.29V0H1.83V.46H1.37V.91H.91v.46h.91V.91h.91v.46H4.57V.91H5v.46h.91V.91ZM3.66.91V.46h.46V.91Z"/><rect class="cls-5" x="2.29" y="2.28" width="0.46" height="0.46"/><rect class="cls-5" x="0.46" y="2.28" width="0.46" height="0.46"/><polygon class="cls-6" points="5.94 1.83 5.48 1.83 5.48 2.29 5.94 2.29 6.4 2.29 6.4 1.83 5.94 1.83"/><rect class="cls-6" x="4.57" width="0.46" height="0.46"/><polygon class="cls-6" points="4.11 1.83 3.66 1.83 3.2 1.83 2.74 1.83 2.29 1.83 2.29 2.29 2.74 2.29 3.2 2.29 3.66 2.29 4.11 2.29 4.57 2.29 5.03 2.29 5.03 1.83 4.57 1.83 4.11 1.83"/><rect class="cls-6" x="3.66" y="0.46" width="0.46" height="0.46"/><rect class="cls-6" x="2.29" width="0.46" height="0.46"/><rect class="cls-6" x="0.46" y="1.83" width="0.46" height="0.46"/><polygon class="cls-7" points="4.11 4.11 3.66 4.11 3.2 4.11 2.74 4.11 2.74 3.66 2.29 3.66 1.83 3.66 1.83 4.11 1.37 4.11 1.37 3.66 0.91 3.66 0.46 3.66 0.46 4.11 0.91 4.11 0.91 4.57 1.37 4.57 1.83 4.57 2.29 4.57 2.74 4.57 3.2 4.57 3.66 4.57 4.11 4.57 4.57 4.57 4.57 4.11 4.11 4.11"/><rect class="cls-7" x="0.91" y="0.46" width="0.46" height="0.46"/><rect class="cls-7" x="0.46" y="0.91" width="0.46" height="0.46"/><polygon class="cls-8" points="5.03 1.37 4.57 1.37 4.57 1.83 5.03 1.83 5.03 2.29 5.48 2.29 5.48 1.83 5.48 1.37 5.03 1.37"/><polygon class="cls-8" points="3.66 3.66 3.2 3.66 3.2 4.11 3.66 4.11 4.11 4.11 4.11 3.66 4.11 3.2 3.66 3.2 3.66 3.66"/><rect class="cls-8" x="2.29" y="3.2" width="0.46" height="0.46"/><rect class="cls-8" x="1.37" y="1.37" width="0.46" height="0.46"/><polygon class="cls-8" points="0.91 3.2 0.46 3.2 0 3.2 0 3.66 0.46 3.66 0.91 3.66 1.37 3.66 1.37 4.11 1.83 4.11 1.83 3.66 1.83 3.2 1.37 3.2 0.91 3.2"/><rect class="cls-8" x="0.46" y="1.37" width="0.46" height="0.46"/><polygon class="cls-9" points="5.94 2.74 5.48 2.74 5.03 2.74 4.57 2.74 4.11 2.74 4.11 3.2 4.57 3.2 5.03 3.2 5.48 3.2 5.94 3.2 6.4 3.2 6.4 2.74 5.94 2.74"/><polygon class="cls-9" points="3.2 2.74 2.74 2.74 2.29 2.74 1.83 2.74 1.83 2.29 1.37 2.29 1.37 2.74 0.91 2.74 0.46 2.74 0 2.74 0 3.2 0.46 3.2 0.91 3.2 1.37 3.2 1.83 3.2 2.29 3.2 2.74 3.2 3.2 3.2 3.66 3.2 3.66 2.74 3.66 2.29 3.2 2.29 3.2 2.74"/><rect class="cls-10" x="5.94" y="2.28" width="0.46" height="0.46"/><polygon class="cls-10" points="1.37 1.83 0.91 1.83 0.91 2.29 1.37 2.29 1.83 2.29 2.29 2.29 2.29 1.83 1.83 1.83 1.37 1.83"/><polygon class="cls-10" points="0 2.29 0 2.74 0.46 2.74 0.46 2.29 0.46 1.83 0 1.83 0 2.29"/><polygon class="cls-11" points="5.94 3.2 5.48 3.2 5.03 3.2 4.57 3.2 4.11 3.2 4.11 3.66 4.57 3.66 5.03 3.66 5.48 3.66 5.94 3.66 6.4 3.66 6.4 3.2 5.94 3.2"/><rect class="cls-11" x="5.48" y="1.37" width="0.46" height="0.46"/><rect class="cls-11" x="4.57" y="0.91" width="0.46" height="0.46"/><polygon class="cls-11" points="4.57 1.83 4.57 1.37 4.11 1.37 3.66 1.37 3.2 1.37 2.74 1.37 2.74 0.91 2.29 0.91 1.83 0.91 1.83 1.37 1.83 1.83 2.29 1.83 2.74 1.83 3.2 1.83 3.66 1.83 4.11 1.83 4.57 1.83"/><polygon class="cls-11" points="2.74 3.2 2.74 3.66 3.2 3.66 3.66 3.66 3.66 3.2 3.2 3.2 2.74 3.2"/><rect class="cls-11" x="1.83" y="3.2" width="0.46" height="0.46"/><rect class="cls-11" x="0.91" y="1.37" width="0.46" height="0.46"/><rect class="cls-11" y="1.37" width="0.46" height="0.46"/></g></g></svg>