<svg xmlns="http://www.w3.org/2000/svg" viewBox="0 0 7.31 7.31"><defs><style>.cls-1{fill:#e6df9b;}.cls-2{fill:#fff7ac;}.cls-3{fill:#d98847;}.cls-4{fill:#ffa053;}.cls-5{fill:#ec944d;}</style></defs><title>Asset 8</title><g id="Layer_2" data-name="Layer 2"><g id="Layer_1-2" data-name="Layer 1"><rect class="cls-1" x="6.85" y="0.91" width="0.46" height="0.46"/><rect class="cls-1" x="6.4" y="1.37" width="0.46" height="0.46"/><rect class="cls-1" x="5.48" y="1.83" width="0.46" height="0.46"/><rect class="cls-1" x="5.03" y="2.28" width="0.46" height="0.46"/><rect class="cls-1" x="4.57" y="2.74" width="0.46" height="0.46"/><polygon class="cls-2" points="6.4 0.46 6.4 0 5.94 0 5.94 0.46 5.48 0.46 5.48 0.91 5.48 1.37 5.03 1.37 5.03 1.83 4.57 1.83 4.57 2.29 4.11 2.29 4.11 2.74 4.11 3.2 4.57 3.2 4.57 2.74 5.03 2.74 5.03 2.29 5.48 2.29 5.48 1.83 5.94 1.83 6.4 1.83 6.4 1.37 6.86 1.37 6.86 0.91 6.86 0.46 6.4 0.46"/><rect class="cls-3" x="4.11" y="4.11" width="0.46" height="0.46"/><polygon class="cls-3" points="3.65 5.03 3.65 5.48 4.11 5.48 4.11 5.03 4.11 4.57 3.65 4.57 3.65 5.03"/><polygon class="cls-3" points="4.11 3.2 4.11 2.74 3.65 2.74 3.2 2.74 3.2 3.2 3.65 3.2 4.11 3.2"/><polygon class="cls-3" points="3.2 5.94 2.74 5.94 2.74 6.4 2.29 6.4 2.29 6.86 1.83 6.86 1.37 6.86 0.91 6.86 0.91 7.31 1.37 7.31 1.83 7.31 2.29 7.31 2.74 7.31 2.74 6.86 3.2 6.86 3.2 6.4 3.65 6.4 3.65 5.94 3.65 5.48 3.2 5.48 3.2 5.94"/><polygon class="cls-4" points="2.74 4.11 2.74 3.65 2.29 3.65 1.83 3.65 1.83 4.11 1.37 4.11 1.37 4.57 0.91 4.57 0.91 5.03 0.46 5.03 0.46 5.48 0.46 5.94 0.91 5.94 0.91 6.4 1.37 6.4 1.83 6.4 1.83 5.94 2.29 5.94 2.29 5.48 2.74 5.48 2.74 5.03 2.74 4.57 3.2 4.57 3.2 4.11 2.74 4.11"/><polygon class="cls-5" points="4.11 3.2 3.65 3.2 3.2 3.2 2.74 3.2 2.29 3.2 2.29 3.65 2.74 3.65 2.74 4.11 3.2 4.11 3.2 4.57 2.74 4.57 2.74 5.03 2.74 5.48 2.29 5.48 2.29 5.94 1.83 5.94 1.83 6.4 1.37 6.4 0.91 6.4 0.91 5.94 0.46 5.94 0.46 5.48 0 5.48 0 5.94 0 6.4 0.46 6.4 0.46 6.86 0.91 6.86 1.37 6.86 1.83 6.86 2.29 6.86 2.29 6.4 2.74 6.4 2.74 5.94 3.2 5.94 3.2 5.48 3.65 5.48 3.65 5.03 3.65 4.57 4.11 4.57 4.11 4.11 4.57 4.11 4.57 3.65 4.57 3.2 4.11 3.2"/><rect class="cls-5" x="1.37" y="3.66" width="0.46" height="0.46"/><rect class="cls-5" x="0.91" y="4.11" width="0.46" height="0.46"/><rect class="cls-5" x="0.46" y="4.57" width="0.46" height="0.46"/></g></g></svg>