<svg xmlns="http://www.w3.org/2000/svg" viewBox="0 0 3.7 9.14"><defs><style>.cls-1{fill:#ffd081;}.cls-2{fill:#e6bc74;}.cls-3{fill:#cca767;}.cls-4{fill:#f6e8c1;}.cls-5{fill:#a46846;}.cls-6{fill:#b3925a;}.cls-7{fill:#997d4d;}.cls-8{fill:#f9bf60;}</style></defs><title>Asset 14</title><g id="Layer_2" data-name="Layer 2"><g id="Layer_1-2" data-name="Layer 1"><rect class="cls-1" x="2.96" y="5.48" width="0.37" height="0.46"/><polygon class="cls-1" points="2.96 4.11 2.59 4.11 2.59 4.57 2.96 4.57 2.96 5.03 3.33 5.03 3.33 4.57 3.33 4.11 2.96 4.11"/><polygon class="cls-1" points="2.59 6.4 2.59 6.86 2.22 6.86 2.22 7.31 2.22 7.77 2.22 8.23 2.59 8.23 2.59 7.77 2.59 7.31 2.96 7.31 2.96 6.86 2.96 6.4 2.96 5.94 2.59 5.94 2.59 6.4"/><rect class="cls-1" x="2.59" y="5.03" width="0.37" height="0.46"/><polygon class="cls-1" points="1.85 8.68 1.85 9.14 2.22 9.14 2.22 8.68 2.22 8.23 1.85 8.23 1.85 8.68"/><path class="cls-2" d="M2.22,4.57V5H1.85V4.57h.37V4.11H1.11v.46h.37V5H1.11v.91h.37v.91h.37v.46h.37V6.4h.37V4.57Zm0,1.37H1.85V5.48h.37Z"/><polygon class="cls-2" points="1.48 7.77 1.48 8.23 1.85 8.23 2.22 8.23 2.22 7.77 1.85 7.77 1.85 7.31 1.48 7.31 1.48 7.77"/><rect class="cls-2" x="0.74" y="4.57" width="0.37" height="0.46"/><polygon class="cls-3" points="3.33 3.66 2.96 3.66 2.59 3.66 2.59 4.11 2.96 4.11 3.33 4.11 3.33 4.57 3.7 4.57 3.7 4.11 3.7 3.66 3.33 3.66"/><rect class="cls-3" x="2.96" y="5.03" width="0.37" height="0.46"/><rect class="cls-3" x="2.59" y="5.48" width="0.37" height="0.46"/><rect class="cls-3" x="2.59" y="4.57" width="0.37" height="0.46"/><rect class="cls-3" x="2.22" y="8.23" width="0.37" height="0.46"/><rect class="cls-3" x="2.22" y="6.4" width="0.37" height="0.46"/><rect class="cls-3" x="2.22" y="4.11" width="0.37" height="0.46"/><rect class="cls-3" x="1.85" y="7.31" width="0.37" height="0.46"/><rect class="cls-3" x="1.85" y="5.48" width="0.37" height="0.46"/><rect class="cls-3" x="1.85" y="4.57" width="0.37" height="0.46"/><rect class="cls-3" x="1.48" y="6.85" width="0.37" height="0.46"/><rect class="cls-3" x="1.48" y="3.66" width="0.37" height="0.46"/><rect class="cls-3" x="1.11" y="5.94" width="0.37" height="0.46"/><rect class="cls-3" x="1.11" y="4.57" width="0.37" height="0.46"/><rect class="cls-3" x="0.74" y="5.03" width="0.37" height="0.46"/><rect class="cls-3" x="0.74" y="4.11" width="0.37" height="0.46"/><polygon class="cls-4" points="3.33 3.2 2.96 3.2 2.96 3.66 3.33 3.66 3.7 3.66 3.7 3.2 3.33 3.2"/><polygon class="cls-4" points="2.96 1.83 2.59 1.83 2.22 1.83 2.22 2.29 2.22 2.74 2.59 2.74 2.59 2.29 2.96 2.29 2.96 1.83"/><polygon class="cls-4" points="2.59 0.46 2.59 0 2.22 0 1.85 0 1.85 0.46 2.22 0.46 2.59 0.46"/><polygon class="cls-4" points="1.85 2.29 1.85 1.83 2.22 1.83 2.22 1.37 2.22 0.91 1.85 0.91 1.85 1.37 1.48 1.37 1.48 1.83 1.11 1.83 0.74 1.83 0.74 2.29 0.74 2.74 1.11 2.74 1.11 2.29 1.48 2.29 1.48 2.74 1.11 2.74 1.11 3.2 0.74 3.2 0.37 3.2 0.37 3.66 0.74 3.66 1.11 3.66 1.48 3.66 1.48 3.2 1.85 3.2 1.85 3.66 2.22 3.66 2.59 3.66 2.59 3.2 2.22 3.2 2.22 2.74 1.85 2.74 1.85 2.29"/><rect class="cls-4" x="1.48" y="0.46" width="0.37" height="0.46"/><rect class="cls-5" x="2.59" y="2.29" width="0.37" height="0.46"/><rect class="cls-5" x="2.22" y="2.74" width="0.37" height="0.46"/><rect class="cls-5" x="1.85" y="0.46" width="0.37" height="0.46"/><rect class="cls-5" x="1.11" y="2.29" width="0.37" height="0.46"/><rect class="cls-5" x="1.11" y="1.37" width="0.37" height="0.46"/><rect class="cls-5" x="0.37" y="2.74" width="0.37" height="0.46"/><polygon class="cls-6" points="2.22 3.66 1.85 3.66 1.85 4.11 2.22 4.11 2.59 4.11 2.59 3.66 2.22 3.66"/><rect class="cls-6" x="1.48" y="8.23" width="0.37" height="0.46"/><polygon class="cls-6" points="1.11 7.77 1.48 7.77 1.48 7.31 1.48 6.86 1.48 6.4 1.11 6.4 1.11 5.94 1.11 5.48 0.74 5.48 0.74 5.03 0.37 5.03 0.37 5.48 0.37 5.94 0.74 5.94 0.74 6.4 0.74 6.86 1.11 6.86 1.11 7.31 1.11 7.77"/><polygon class="cls-6" points="1.48 4.11 1.48 3.66 1.11 3.66 0.74 3.66 0.74 4.11 1.11 4.11 1.48 4.11"/><polygon class="cls-6" points="0.74 4.57 0.74 4.11 0.37 4.11 0 4.11 0 4.57 0.37 4.57 0.74 4.57"/><rect class="cls-7" x="1.48" y="8.68" width="0.37" height="0.46"/><polygon class="cls-7" points="1.48 7.77 1.11 7.77 1.11 8.23 1.11 8.68 1.48 8.68 1.48 8.23 1.48 7.77"/><rect class="cls-7" x="0.74" y="6.85" width="0.37" height="0.46"/><rect class="cls-7" x="0.37" y="4.57" width="0.37" height="0.46"/><polygon class="cls-7" points="0.74 4.11 0.74 3.66 0.37 3.66 0 3.66 0 4.11 0.37 4.11 0.74 4.11"/><polygon class="cls-8" points="2.96 2.74 2.59 2.74 2.59 3.2 2.59 3.66 2.96 3.66 2.96 3.2 3.33 3.2 3.33 2.74 2.96 2.74"/><polygon class="cls-8" points="2.59 1.37 2.59 0.91 2.22 0.91 2.22 1.37 2.22 1.83 2.59 1.83 2.59 1.37"/><polygon class="cls-8" points="1.85 2.29 1.85 2.74 2.22 2.74 2.22 2.29 2.22 1.83 1.85 1.83 1.85 2.29"/><rect class="cls-8" x="1.48" y="3.2" width="0.37" height="0.46"/><polygon class="cls-8" points="1.85 1.37 1.85 0.91 1.48 0.91 1.11 0.91 1.11 1.37 1.48 1.37 1.85 1.37"/><rect class="cls-8" x="0.74" y="2.74" width="0.37" height="0.46"/><rect class="cls-8" y="3.2" width="0.37" height="0.46"/></g></g></svg>