<svg xmlns="http://www.w3.org/2000/svg" viewBox="0 0 5.48 7.31"><defs><style>.cls-1{fill:#b2170a;}.cls-2{fill:#e9b0a6;}.cls-3{fill:#ffd43a;}.cls-4{fill:#006838;}.cls-5{fill:#a66f08;}.cls-6{fill:#f9ed7d;}.cls-7{fill:#cc890a;}</style></defs><title>Asset 9</title><g id="Layer_2" data-name="Layer 2"><g id="Layer_1-2" data-name="Layer 1"><polygon class="cls-1" points="4.11 1.83 4.11 1.37 3.66 1.37 3.2 1.37 3.2 1.83 3.66 1.83 3.66 2.29 4.11 2.29 4.11 2.74 4.57 2.74 4.57 2.29 4.57 1.83 4.11 1.83"/><rect class="cls-1" x="2.74" y="5.48" width="0.46" height="0.46"/><polygon class="cls-1" points="2.74 3.65 2.74 3.2 2.29 3.2 2.29 3.65 1.83 3.65 1.37 3.65 1.37 4.11 1.83 4.11 1.83 4.57 2.29 4.57 2.29 4.11 2.74 4.11 2.74 3.65"/><polygon class="cls-2" points="3.66 3.65 3.66 4.11 3.2 4.11 3.2 4.57 2.74 4.57 2.74 5.03 3.2 5.03 3.66 5.03 4.11 5.03 4.11 4.57 4.11 4.11 4.11 3.65 3.66 3.65"/><rect class="cls-2" x="2.29" y="2.74" width="0.46" height="0.46"/><polygon class="cls-2" points="2.74 2.29 2.74 1.83 2.29 1.83 1.83 1.83 1.83 2.29 1.37 2.29 1.37 2.74 1.83 2.74 2.29 2.74 2.29 2.29 2.74 2.29"/><polygon class="cls-3" points="4.11 3.65 4.11 4.11 4.11 4.57 4.57 4.57 4.57 4.11 4.57 3.65 4.11 3.65"/><polygon class="cls-3" points="2.74 5.94 2.29 5.94 2.29 6.4 2.29 6.86 2.74 6.86 3.2 6.86 3.2 6.4 2.74 6.4 2.74 5.94"/><polygon class="cls-3" points="2.74 5.03 2.74 4.57 2.29 4.57 1.83 4.57 1.83 4.11 1.37 4.11 1.37 4.57 1.37 5.03 1.83 5.03 2.29 5.03 2.74 5.03"/><polygon class="cls-3" points="1.83 1.83 2.29 1.83 2.74 1.83 2.74 1.37 2.29 1.37 1.83 1.37 1.37 1.37 1.37 1.83 1.37 2.29 1.83 2.29 1.83 1.83"/><polygon class="cls-4" points="3.2 2.29 3.2 2.74 3.2 3.2 3.66 3.2 3.66 2.74 3.66 2.29 3.2 2.29"/><rect class="cls-4" x="2.29" y="5.48" width="0.46" height="0.46"/><rect class="cls-4" x="1.83" y="5.03" width="0.46" height="0.46"/><polygon class="cls-4" points="0.91 3.2 0.91 3.65 1.37 3.65 1.37 3.2 1.37 2.74 0.91 2.74 0.91 3.2"/><rect class="cls-5" x="4.11" y="0.91" width="0.46" height="0.46"/><polygon class="cls-5" points="2.74 0.46 2.29 0.46 1.83 0.46 1.37 0.46 1.37 0.91 1.83 0.91 2.29 0.91 2.74 0.91 3.2 0.91 3.66 0.91 3.66 0.46 3.2 0.46 2.74 0.46"/><rect class="cls-5" x="0.91" y="0.91" width="0.46" height="0.46"/><rect class="cls-5" x="0.46" y="1.37" width="0.46" height="0.46"/><polygon class="cls-6" points="5.03 1.83 4.57 1.83 4.57 2.29 4.57 2.74 4.11 2.74 4.11 2.29 3.66 2.29 3.66 2.74 3.66 3.2 3.2 3.2 3.2 2.74 3.2 2.29 3.66 2.29 3.66 1.83 3.2 1.83 3.2 1.37 3.66 1.37 4.11 1.37 4.11 0.91 3.66 0.91 3.2 0.91 2.74 0.91 2.29 0.91 1.83 0.91 1.37 0.91 1.37 1.37 1.83 1.37 2.29 1.37 2.74 1.37 2.74 1.83 2.74 2.29 2.29 2.29 2.29 2.74 2.74 2.74 2.74 3.2 2.74 3.65 2.74 4.11 2.29 4.11 2.29 4.57 2.74 4.57 3.2 4.57 3.2 4.11 3.66 4.11 3.66 3.65 4.11 3.65 4.57 3.65 5.03 3.65 5.03 3.2 5.03 2.74 5.48 2.74 5.48 2.29 5.48 1.83 5.03 1.83"/><rect class="cls-6" x="4.11" y="1.37" width="0.46" height="0.46"/><polygon class="cls-6" points="3.2 5.03 2.74 5.03 2.29 5.03 2.29 5.48 2.74 5.48 3.2 5.48 3.2 5.94 2.74 5.94 2.74 6.4 3.2 6.4 3.66 6.4 3.66 5.94 3.66 5.48 4.11 5.48 4.11 5.03 3.66 5.03 3.2 5.03"/><polygon class="cls-6" points="2.29 6.86 2.29 7.31 2.74 7.31 3.2 7.31 3.2 6.86 2.74 6.86 2.29 6.86"/><polygon class="cls-6" points="1.83 5.94 1.83 6.4 2.29 6.4 2.29 5.94 2.29 5.48 1.83 5.48 1.83 5.94"/><rect class="cls-6" x="1.37" y="5.03" width="0.46" height="0.46"/><polygon class="cls-6" points="1.37 2.74 1.37 3.2 1.37 3.65 1.83 3.65 2.29 3.65 2.29 3.2 2.29 2.74 1.83 2.74 1.37 2.74"/><polygon class="cls-6" points="0.91 4.11 0.91 4.57 1.37 4.57 1.37 4.11 1.37 3.65 0.91 3.65 0.91 4.11"/><polygon class="cls-6" points="0.91 2.74 1.37 2.74 1.37 2.29 1.37 1.83 1.37 1.37 0.91 1.37 0.91 1.83 0.46 1.83 0 1.83 0 2.29 0 2.74 0.46 2.74 0.46 3.2 0.46 3.65 0.91 3.65 0.91 3.2 0.91 2.74"/><polygon class="cls-7" points="5.03 0.91 5.03 0.46 4.57 0.46 4.11 0.46 4.11 0 3.66 0 3.2 0 2.74 0 2.29 0 1.83 0 1.37 0 1.37 0.46 1.83 0.46 2.29 0.46 2.74 0.46 3.2 0.46 3.66 0.46 3.66 0.91 4.11 0.91 4.57 0.91 4.57 1.37 4.57 1.83 5.03 1.83 5.48 1.83 5.48 1.37 5.48 0.91 5.03 0.91"/><polygon class="cls-7" points="0.46 0.46 0.46 0.91 0 0.91 0 1.37 0 1.83 0.46 1.83 0.46 1.37 0.91 1.37 0.91 0.91 1.37 0.91 1.37 0.46 0.91 0.46 0.46 0.46"/></g></g></svg>