<svg xmlns="http://www.w3.org/2000/svg" viewBox="0 0 284.88 273.62"><defs><style>.cls-1{fill:#ffe676;}.cls-2{fill:#fccc00;}.cls-3{fill:#2a0000;}.cls-4{fill:#fff;}.cls-5{fill:#f5ab00;}.cls-6{fill:#e99600;}.cls-7{fill:#d17000;}</style></defs><title>Asset 1</title><g id="Layer_2" data-name="Layer 2"><g id="Capa_1" data-name="Capa 1"><rect class="cls-1" x="102.48" y="79.81" width="11.4" height="11.4"/><rect class="cls-1" x="113.89" y="79.81" width="11.4" height="11.4"/><rect class="cls-2" x="125.28" y="79.81" width="11.4" height="11.4"/><rect class="cls-2" x="136.66" y="79.81" width="11.4" height="11.4"/><rect class="cls-2" x="148.07" y="79.81" width="11.4" height="11.4"/><rect class="cls-2" x="159.48" y="79.81" width="11.4" height="11.4"/><rect class="cls-2" x="170.91" y="79.81" width="11.4" height="11.4"/><rect class="cls-2" x="22.7" y="114.01" width="11.4" height="11.4"/><rect class="cls-2" x="34.11" y="114.01" width="11.4" height="11.4"/><rect class="cls-2" x="45.49" y="114.01" width="11.4" height="11.4"/><rect class="cls-2" x="56.88" y="114.01" width="11.4" height="11.4"/><rect class="cls-2" x="68.29" y="114.01" width="11.4" height="11.4"/><rect class="cls-3" x="79.7" y="114.01" width="11.4" height="11.4"/><rect class="cls-4" x="91.12" y="114.01" width="11.4" height="11.4"/><rect class="cls-3" x="102.51" y="114.01" width="11.4" height="11.4"/><rect class="cls-3" x="113.92" y="114.01" width="11.4" height="11.4"/><rect class="cls-2" x="125.31" y="114.01" width="11.4" height="11.4"/><rect class="cls-2" x="136.7" y="114.01" width="11.4" height="11.4"/><rect class="cls-2" x="148.11" y="114.01" width="11.4" height="11.4"/><rect class="cls-3" x="159.51" y="114.01" width="11.4" height="11.4"/><rect class="cls-4" x="170.94" y="114.01" width="11.4" height="11.4"/><rect class="cls-3" x="182.24" y="114.01" width="11.4" height="11.4"/><rect class="cls-5" x="205.04" y="114.01" width="11.4" height="11.4"/><rect class="cls-5" x="216.43" y="114.01" width="11.4" height="11.4"/><rect class="cls-5" x="227.84" y="114.01" width="11.4" height="11.4"/><rect class="cls-5" x="239.24" y="114.01" width="11.4" height="11.4"/><rect class="cls-2" x="34.11" y="125.41" width="11.4" height="11.4"/><rect class="cls-2" x="45.49" y="125.41" width="11.4" height="11.4"/><rect class="cls-2" x="56.88" y="125.41" width="11.4" height="11.4"/><rect class="cls-2" x="68.29" y="125.41" width="11.4" height="11.4"/><rect class="cls-3" x="79.7" y="125.41" width="11.4" height="11.4"/><rect class="cls-3" x="91.12" y="125.41" width="11.4" height="11.4"/><rect class="cls-3" x="102.51" y="125.41" width="11.4" height="11.4"/><rect class="cls-3" x="113.92" y="125.41" width="11.4" height="11.4"/><rect class="cls-2" x="125.31" y="125.41" width="11.4" height="11.4"/><rect class="cls-2" x="136.7" y="125.41" width="11.4" height="11.4"/><rect class="cls-2" x="148.11" y="125.41" width="11.4" height="11.4"/><rect class="cls-3" x="159.51" y="125.41" width="11.4" height="11.4"/><rect class="cls-3" x="170.94" y="125.41" width="11.4" height="11.4"/><rect class="cls-3" x="193.65" y="125.41" width="11.4" height="11.4"/><rect class="cls-5" x="205.04" y="125.41" width="11.4" height="11.4"/><rect class="cls-5" x="216.43" y="125.41" width="11.4" height="11.4"/><rect class="cls-5" x="227.84" y="125.41" width="11.4" height="11.4"/><rect class="cls-2" x="45.49" y="136.76" width="11.4" height="11.4"/><rect class="cls-2" x="56.88" y="136.76" width="11.4" height="11.4"/><rect class="cls-2" x="68.29" y="136.76" width="11.4" height="11.4"/><rect class="cls-2" x="79.7" y="136.76" width="11.4" height="11.4"/><rect class="cls-3" x="91.12" y="136.76" width="11.4" height="11.4"/><rect class="cls-3" x="102.51" y="136.76" width="11.4" height="11.4"/><rect class="cls-2" x="113.92" y="136.76" width="11.4" height="11.4"/><rect class="cls-2" x="125.31" y="136.76" width="11.4" height="11.4"/><rect class="cls-2" x="136.7" y="136.76" width="11.4" height="11.4"/><rect class="cls-2" x="148.11" y="136.76" width="11.4" height="11.4"/><rect class="cls-2" x="159.51" y="136.76" width="11.4" height="11.4"/><rect class="cls-3" x="182.24" y="136.76" width="11.4" height="11.4"/><rect class="cls-5" x="193.65" y="136.76" width="11.4" height="11.4"/><rect class="cls-5" x="205.04" y="136.76" width="11.4" height="11.4"/><rect class="cls-5" x="216.43" y="136.76" width="11.4" height="11.4"/><rect class="cls-2" x="56.88" y="148.17" width="11.4" height="11.4"/><rect class="cls-2" x="68.29" y="148.17" width="11.4" height="11.4"/><rect class="cls-2" x="79.7" y="148.17" width="11.4" height="11.4"/><rect class="cls-2" x="91.12" y="148.17" width="11.4" height="11.4"/><rect class="cls-2" x="102.51" y="148.17" width="11.4" height="11.4"/><rect class="cls-2" x="113.92" y="148.17" width="11.4" height="11.4"/><rect class="cls-2" x="125.31" y="148.17" width="11.4" height="11.4"/><rect class="cls-2" x="136.7" y="148.17" width="11.4" height="11.4"/><rect class="cls-2" x="148.11" y="148.17" width="11.4" height="11.4"/><rect class="cls-5" x="170.94" y="148.17" width="11.4" height="11.4"/><rect class="cls-5" x="182.24" y="148.17" width="11.4" height="11.4"/><rect class="cls-5" x="193.65" y="148.17" width="11.4" height="11.4"/><rect class="cls-5" x="205.04" y="148.17" width="11.4" height="11.4"/><rect class="cls-2" x="68.29" y="159.57" width="11.4" height="11.4"/><rect class="cls-2" x="79.7" y="159.57" width="11.4" height="11.4"/><rect class="cls-3" x="91.12" y="159.57" width="11.4" height="11.4"/><rect class="cls-2" x="102.51" y="159.57" width="11.4" height="11.4"/><rect class="cls-2" x="113.92" y="159.57" width="11.4" height="11.4"/><rect class="cls-2" x="125.31" y="159.57" width="11.4" height="11.4"/><rect class="cls-2" x="136.7" y="159.57" width="11.4" height="11.4"/><rect class="cls-5" x="159.51" y="159.57" width="11.4" height="11.4"/><rect class="cls-5" x="170.94" y="159.57" width="11.4" height="11.4"/><rect class="cls-3" x="182.24" y="159.57" width="11.4" height="11.4"/><rect class="cls-5" x="193.65" y="159.57" width="11.4" height="11.4"/><rect class="cls-2" x="79.7" y="171.02" width="11.4" height="11.4"/><rect class="cls-2" x="91.12" y="171.02" width="11.4" height="11.4"/><rect class="cls-3" x="102.51" y="171.02" width="11.4" height="11.4"/><rect class="cls-2" x="113.92" y="171.02" width="11.4" height="11.4"/><rect class="cls-2" x="125.31" y="171.02" width="11.4" height="11.4"/><rect class="cls-5" x="148.11" y="171.02" width="11.4" height="11.4"/><rect class="cls-5" x="159.51" y="171.02" width="11.4" height="11.4"/><rect class="cls-3" x="170.94" y="171.02" width="11.4" height="11.4"/><rect class="cls-5" x="182.24" y="171.02" width="11.4" height="11.4"/><rect class="cls-5" x="193.65" y="171.02" width="11.4" height="11.4"/><rect class="cls-2" x="79.7" y="182.47" width="11.4" height="11.4"/><rect class="cls-2" x="91.12" y="182.47" width="11.4" height="11.4"/><rect class="cls-2" x="102.51" y="182.47" width="11.4" height="11.4"/><rect class="cls-3" x="113.92" y="182.47" width="11.4" height="11.4"/><rect class="cls-3" x="136.7" y="182.47" width="11.4" height="11.4"/><rect class="cls-3" x="148.11" y="182.47" width="11.4" height="11.4"/><rect class="cls-3" x="159.51" y="182.47" width="11.4" height="11.4"/><rect class="cls-5" x="170.94" y="182.47" width="11.4" height="11.4"/><rect class="cls-5" x="182.24" y="182.47" width="11.4" height="11.4"/><rect class="cls-5" x="193.65" y="182.47" width="11.4" height="11.4"/><rect class="cls-5" x="205.04" y="159.57" width="11.4" height="11.4"/><rect class="cls-2" x="68.34" y="193.82" width="11.4" height="11.4"/><rect class="cls-2" x="79.75" y="193.82" width="11.4" height="11.4"/><rect class="cls-2" x="91.18" y="193.82" width="11.4" height="11.4"/><rect class="cls-2" x="102.57" y="193.82" width="11.4" height="11.4"/><rect class="cls-5" x="125.36" y="193.82" width="11.4" height="11.4"/><rect class="cls-5" x="136.75" y="193.82" width="11.4" height="11.4"/><rect class="cls-5" x="148.16" y="193.82" width="11.4" height="11.4"/><rect class="cls-5" x="159.56" y="193.82" width="11.4" height="11.4"/><rect class="cls-5" x="170.99" y="193.82" width="11.4" height="11.4"/><rect class="cls-5" x="182.3" y="193.82" width="11.4" height="11.4"/><rect class="cls-5" x="193.7" y="193.82" width="11.4" height="11.4"/><rect class="cls-5" x="205.09" y="193.82" width="11.4" height="11.4"/><rect class="cls-2" x="68.34" y="205.17" width="11.4" height="11.4"/><rect class="cls-2" x="79.75" y="205.17" width="11.4" height="11.4"/><rect class="cls-2" x="91.18" y="205.17" width="11.4" height="11.4"/><rect class="cls-5" x="113.97" y="205.17" width="11.4" height="11.4"/><rect class="cls-5" x="125.36" y="205.17" width="11.4" height="11.4"/><rect class="cls-5" x="136.75" y="205.17" width="11.4" height="11.4"/><rect class="cls-5" x="148.16" y="205.17" width="11.4" height="11.4"/><rect class="cls-5" x="159.56" y="205.17" width="11.4" height="11.4"/><rect class="cls-5" x="170.99" y="205.17" width="11.4" height="11.4"/><rect class="cls-5" x="182.3" y="205.17" width="11.4" height="11.4"/><rect class="cls-5" x="193.7" y="205.17" width="11.4" height="11.4"/><rect class="cls-5" x="205.09" y="205.17" width="11.4" height="11.4"/><rect class="cls-2" x="68.34" y="216.57" width="11.4" height="11.4"/><rect class="cls-2" x="79.75" y="216.57" width="11.4" height="11.4"/><rect class="cls-5" x="102.57" y="216.57" width="11.4" height="11.4"/><rect class="cls-5" x="113.97" y="216.57" width="11.4" height="11.4"/><rect class="cls-5" x="125.36" y="216.57" width="11.4" height="11.4"/><rect class="cls-5" x="136.75" y="216.57" width="11.4" height="11.4"/><rect class="cls-5" x="148.16" y="216.57" width="11.4" height="11.4"/><rect class="cls-5" x="159.56" y="216.57" width="11.4" height="11.98"/><rect class="cls-5" x="170.99" y="216.57" width="11.4" height="11.4"/><rect class="cls-5" x="182.3" y="216.57" width="11.4" height="11.4"/><rect class="cls-5" x="193.7" y="216.57" width="11.4" height="11.4"/><rect class="cls-5" x="205.09" y="216.57" width="11.4" height="11.4"/><rect class="cls-5" x="216.43" y="148.17" width="11.4" height="11.4"/><rect class="cls-2" x="56.88" y="228.07" width="11.4" height="11.4"/><rect class="cls-2" x="68.29" y="228.07" width="11.4" height="11.4"/><rect class="cls-5" x="91.12" y="228.07" width="11.4" height="11.4"/><rect class="cls-5" x="102.51" y="228.07" width="11.4" height="11.4"/><rect class="cls-5" x="113.92" y="228.07" width="11.4" height="11.4"/><rect class="cls-5" x="170.94" y="228.07" width="11.4" height="11.4"/><rect class="cls-5" x="182.24" y="228.07" width="11.4" height="11.4"/><rect class="cls-5" x="193.65" y="228.07" width="11.4" height="11.4"/><rect class="cls-5" x="205.04" y="228.07" width="11.4" height="11.4"/><rect class="cls-5" x="216.43" y="228.07" width="11.4" height="11.4"/><rect class="cls-2" x="56.88" y="239.47" width="11.4" height="11.4"/><rect class="cls-5" x="79.7" y="239.47" width="11.4" height="11.4"/><rect class="cls-5" x="91.12" y="239.47" width="11.4" height="11.4"/><rect class="cls-5" x="182.24" y="239.47" width="11.4" height="11.4"/><rect class="cls-5" x="193.65" y="239.47" width="11.4" height="11.4"/><rect class="cls-5" x="205.04" y="239.47" width="11.4" height="11.4"/><rect class="cls-5" x="216.43" y="239.47" width="11.4" height="11.4"/><rect class="cls-2" x="68.29" y="250.79" width="11.4" height="11.4"/><rect class="cls-5" x="205.04" y="250.79" width="11.4" height="11.4"/><rect class="cls-5" x="216.43" y="250.79" width="11.4" height="11.4"/><rect class="cls-5" x="227.84" y="136.76" width="11.4" height="11.4"/><rect class="cls-5" x="239.24" y="125.41" width="11.4" height="11.4"/><rect class="cls-5" x="250.67" y="114.01" width="11.4" height="11.4"/><rect class="cls-1" x="22.7" y="102.61" width="11.4" height="11.4"/><rect class="cls-1" x="11.3" y="102.61" width="11.4" height="11.4"/><rect class="cls-1" x="34.11" y="102.61" width="11.4" height="11.4"/><rect class="cls-2" x="45.49" y="102.61" width="11.4" height="11.4"/><rect class="cls-1" x="56.88" y="102.61" width="11.4" height="11.4"/><rect class="cls-1" x="68.29" y="102.61" width="11.4" height="11.4"/><rect class="cls-1" x="79.7" y="102.61" width="11.4" height="11.4"/><rect class="cls-3" x="91.12" y="102.61" width="11.4" height="11.4"/><rect class="cls-3" x="102.51" y="102.61" width="11.4" height="11.4"/><rect class="cls-2" x="113.92" y="102.61" width="11.4" height="11.4"/><rect class="cls-2" x="125.31" y="102.61" width="11.4" height="11.4"/><rect class="cls-2" x="136.7" y="102.61" width="11.4" height="11.4"/><rect class="cls-2" x="148.11" y="102.61" width="11.4" height="11.4"/><rect class="cls-2" x="159.51" y="102.61" width="11.4" height="11.4"/><rect class="cls-3" x="170.94" y="102.61" width="11.4" height="11.4"/><rect class="cls-3" x="182.24" y="102.61" width="11.4" height="11.4"/><rect class="cls-2" x="193.65" y="102.61" width="11.4" height="11.4"/><rect class="cls-5" x="216.43" y="102.61" width="11.4" height="11.4"/><rect class="cls-5" x="227.84" y="102.61" width="11.4" height="11.4"/><rect class="cls-5" x="239.24" y="102.61" width="11.4" height="11.4"/><rect class="cls-5" x="250.67" y="102.61" width="11.4" height="11.4"/><rect class="cls-5" x="262.08" y="102.61" width="11.4" height="11.4"/><rect class="cls-1" x="22.7" y="91.21" width="11.4" height="11.4"/><rect class="cls-1" x="11.3" y="91.21" width="11.4" height="11.4"/><rect class="cls-1" x="34.11" y="91.21" width="11.4" height="11.4"/><rect class="cls-1" x="45.49" y="91.21" width="11.4" height="11.4"/><rect class="cls-1" x="56.88" y="91.21" width="11.4" height="11.4"/><rect class="cls-1" x="68.29" y="91.21" width="11.4" height="11.4"/><rect class="cls-1" x="79.7" y="91.21" width="11.4" height="11.4"/><rect class="cls-1" x="91.12" y="91.21" width="11.4" height="11.4"/><rect class="cls-1" x="102.51" y="91.21" width="11.4" height="11.4"/><rect class="cls-1" x="113.92" y="91.21" width="11.4" height="11.4"/><rect class="cls-2" x="125.31" y="91.21" width="11.4" height="11.4"/><rect class="cls-2" x="136.7" y="91.21" width="11.4" height="11.4"/><rect class="cls-2" x="148.11" y="91.21" width="11.4" height="11.4"/><rect class="cls-2" x="159.51" y="91.21" width="11.4" height="11.4"/><rect class="cls-2" x="170.94" y="91.21" width="11.4" height="11.4"/><rect class="cls-2" x="182.24" y="91.21" width="11.4" height="11.4"/><rect class="cls-2" x="193.65" y="91.21" width="11.4" height="11.4"/><rect class="cls-2" x="205.04" y="91.21" width="11.4" height="11.4"/><rect class="cls-3" x="193.65" y="114.01" width="11.4" height="11.4"/><rect class="cls-3" x="182.24" y="125.41" width="11.4" height="11.4"/><rect class="cls-3" x="170.94" y="136.76" width="11.4" height="11.4"/><rect class="cls-5" x="159.51" y="148.17" width="11.4" height="11.4"/><rect class="cls-5" x="148.11" y="159.57" width="11.4" height="11.4"/><rect class="cls-5" x="136.7" y="171.02" width="11.4" height="11.4"/><rect class="cls-3" x="125.31" y="182.47" width="11.4" height="11.4"/><rect class="cls-5" x="113.97" y="193.82" width="11.4" height="11.4"/><rect class="cls-5" x="102.57" y="205.17" width="11.4" height="11.4"/><rect class="cls-5" x="91.18" y="216.57" width="11.4" height="11.4"/><rect class="cls-5" x="79.7" y="228.07" width="11.4" height="11.4"/><rect class="cls-5" x="68.29" y="239.47" width="11.4" height="11.4"/><rect class="cls-5" x="56.88" y="250.79" width="11.4" height="11.4"/><rect class="cls-5" x="205.04" y="102.61" width="11.4" height="11.4"/><rect class="cls-5" x="216.43" y="91.21" width="11.4" height="11.4"/><rect class="cls-5" x="227.84" y="91.21" width="11.4" height="11.4"/><rect class="cls-5" x="239.24" y="91.21" width="11.4" height="11.4"/><rect class="cls-5" x="250.67" y="91.21" width="11.4" height="11.4"/><rect class="cls-5" x="262.08" y="91.21" width="11.4" height="11.4"/><rect class="cls-1" x="102.48" y="68.35" width="11.4" height="11.4"/><rect class="cls-1" x="113.89" y="68.35" width="11.4" height="11.4"/><rect class="cls-1" x="125.28" y="68.35" width="11.4" height="11.4"/><rect class="cls-2" x="136.66" y="68.35" width="11.4" height="11.4"/><rect class="cls-2" x="148.07" y="68.35" width="11.4" height="11.4"/><rect class="cls-2" x="159.48" y="68.35" width="11.4" height="11.4"/><rect class="cls-2" x="170.91" y="68.35" width="11.4" height="11.4"/><rect class="cls-2" x="102.48" y="56.9" width="11.4" height="11.4"/><rect class="cls-1" x="113.89" y="56.9" width="11.4" height="11.4"/><rect class="cls-1" x="125.28" y="56.9" width="11.4" height="11.4"/><rect class="cls-1" x="136.66" y="56.9" width="11.4" height="11.4"/><rect class="cls-2" x="148.07" y="56.9" width="11.4" height="11.4"/><rect class="cls-2" x="159.48" y="56.9" width="11.4" height="11.4"/><rect class="cls-2" x="170.91" y="56.9" width="11.4" height="11.4"/><rect class="cls-1" x="113.89" y="45.45" width="11.4" height="11.4"/><rect class="cls-1" x="125.28" y="45.45" width="11.4" height="11.4"/><rect class="cls-1" x="136.66" y="45.45" width="11.4" height="11.4"/><rect class="cls-2" x="148.07" y="45.45" width="11.4" height="11.4"/><rect class="cls-2" x="159.48" y="45.45" width="11.4" height="11.4"/><rect class="cls-1" x="125.28" y="33.99" width="11.4" height="11.4"/><rect class="cls-1" x="136.66" y="33.99" width="11.4" height="11.4"/><rect class="cls-1" x="148.07" y="33.99" width="11.4" height="11.4"/><rect class="cls-1" x="125.28" y="22.54" width="11.4" height="11.4"/><rect class="cls-1" x="136.66" y="22.54" width="11.4" height="11.4"/><rect class="cls-1" x="148.07" y="22.54" width="11.4" height="11.4"/><rect class="cls-1" x="136.66" y="11.08" width="11.4" height="11.4"/><rect class="cls-6" x="142.41" width="11.4" height="11.4"/><rect class="cls-6" x="148.11" y="11.4" width="11.4" height="11.4"/><rect class="cls-6" x="153.81" y="22.8" width="11.4" height="11.4"/><rect class="cls-6" x="159.51" y="34.2" width="11.4" height="11.4"/><rect class="cls-6" x="165.21" y="45.61" width="11.4" height="11.4"/><rect class="cls-6" x="170.91" y="57.01" width="11.4" height="11.4"/><rect class="cls-6" x="176.61" y="68.41" width="11.4" height="11.4"/><rect class="cls-7" x="205.05" y="171.02" width="11.4" height="11.4"/><rect class="cls-7" x="216.45" y="159.62" width="11.4" height="11.4"/><rect class="cls-7" x="227.85" y="148.22" width="11.4" height="11.4"/><rect class="cls-7" x="239.26" y="136.81" width="11.4" height="11.4"/><rect class="cls-7" x="250.66" y="125.41" width="11.4" height="11.4"/><rect class="cls-7" x="262.06" y="114.01" width="11.4" height="11.4"/><rect class="cls-7" x="273.46" y="102.61" width="11.4" height="11.4"/><rect class="cls-7" x="205.05" y="182.42" width="11.4" height="11.4"/><rect class="cls-7" x="216.53" y="193.86" width="11.4" height="11.4"/><rect class="cls-7" x="216.53" y="205.24" width="11.4" height="11.4"/><rect class="cls-7" x="216.53" y="216.65" width="11.4" height="11.4"/><rect class="cls-7" x="227.72" y="228.07" width="11.4" height="11.4"/><rect class="cls-7" x="227.72" y="239.45" width="11.4" height="11.4"/><rect class="cls-7" x="227.72" y="250.85" width="11.4" height="11.4"/><rect class="cls-7" x="216.41" y="262.22" width="11.4" height="11.4"/><rect class="cls-7" x="205.12" y="250.92" width="11.4" height="11.4"/><rect class="cls-7" x="193.72" y="245.33" width="11.4" height="11.4"/><rect class="cls-7" x="182.31" y="239.73" width="11.4" height="11.4"/><rect class="cls-7" x="170.91" y="234.14" width="11.4" height="11.4"/><rect class="cls-7" x="159.51" y="228.54" width="11.4" height="11.4"/><rect class="cls-7" x="148.11" y="222.95" width="11.4" height="11.4"/><rect class="cls-7" x="136.76" y="218.3" width="11.4" height="11.4"/><rect class="cls-6" x="182.31" y="79.81" width="11.4" height="11.4"/><rect class="cls-6" x="193.7" y="79.81" width="11.4" height="11.4"/><rect class="cls-6" x="205.08" y="79.81" width="11.4" height="11.4"/><rect class="cls-7" x="216.46" y="79.81" width="11.4" height="11.4"/><rect class="cls-7" x="227.84" y="79.81" width="11.4" height="11.4"/><rect class="cls-7" x="239.27" y="85.54" width="11.4" height="11.4"/><rect class="cls-7" x="250.66" y="85.54" width="11.4" height="11.4"/><rect class="cls-7" x="262.07" y="85.54" width="11.4" height="11.4"/><rect class="cls-7" x="273.46" y="85.54" width="11.4" height="11.4"/><rect class="cls-7" x="273.47" y="96.94" width="11.4" height="5.71"/><rect class="cls-6" x="131.06" width="11.4" height="11.4"/><rect class="cls-6" x="125.36" y="11.4" width="11.4" height="11.4"/><rect class="cls-6" x="119.66" y="22.8" width="11.4" height="11.4"/><rect class="cls-6" x="113.96" y="34.2" width="11.4" height="11.4"/><rect class="cls-6" x="108.26" y="45.61" width="11.4" height="11.4"/><rect class="cls-6" x="102.56" y="57.01" width="11.4" height="11.4"/><rect class="cls-6" x="96.86" y="68.41" width="11.4" height="11.4"/><rect class="cls-6" x="68.42" y="171.02" width="11.4" height="11.4"/><rect class="cls-6" x="57.02" y="159.62" width="11.4" height="11.4"/><rect class="cls-6" x="45.62" y="148.22" width="11.4" height="11.4"/><rect class="cls-6" x="34.22" y="136.81" width="11.4" height="11.4"/><rect class="cls-6" x="22.82" y="125.41" width="11.4" height="11.4"/><rect class="cls-6" x="11.41" y="114.01" width="11.4" height="11.4"/><rect class="cls-6" x="0.01" y="102.61" width="11.4" height="11.4"/><rect class="cls-6" x="68.42" y="182.42" width="11.4" height="11.4"/><rect class="cls-6" x="56.94" y="193.86" width="11.4" height="11.4"/><rect class="cls-6" x="56.94" y="205.24" width="11.4" height="11.4"/><rect class="cls-6" x="56.94" y="216.65" width="11.4" height="11.4"/><rect class="cls-6" x="45.75" y="228.07" width="11.4" height="11.4"/><rect class="cls-6" x="45.75" y="239.45" width="11.4" height="11.4"/><rect class="cls-6" x="45.75" y="250.85" width="11.4" height="11.4"/><rect class="cls-7" x="57.06" y="262.22" width="11.4" height="11.4"/><rect class="cls-7" x="68.36" y="250.92" width="11.4" height="11.4"/><rect class="cls-7" x="79.76" y="245.33" width="11.4" height="11.4"/><rect class="cls-7" x="91.16" y="239.73" width="11.4" height="11.4"/><rect class="cls-7" x="102.56" y="234.14" width="11.4" height="11.4"/><rect class="cls-7" x="113.96" y="228.54" width="11.4" height="11.4"/><rect class="cls-7" x="125.36" y="222.95" width="11.4" height="11.4"/><rect class="cls-6" x="91.16" y="79.81" width="11.4" height="11.4"/><rect class="cls-6" x="79.78" y="79.81" width="11.4" height="11.4"/><rect class="cls-6" x="68.4" y="79.81" width="11.4" height="11.4"/><rect class="cls-6" x="57.01" y="79.81" width="11.4" height="11.4"/><rect class="cls-6" x="45.63" y="79.81" width="11.4" height="11.4"/><rect class="cls-6" x="34.2" y="85.54" width="11.4" height="11.4"/><rect class="cls-6" x="22.81" y="85.54" width="11.4" height="11.4"/><rect class="cls-6" x="11.41" y="85.54" width="11.4" height="11.4"/><rect class="cls-6" x="0.02" y="85.54" width="11.4" height="11.4"/><rect class="cls-6" y="96.94" width="11.4" height="5.71"/></g></g></svg>